<svg xmlns="http://www.w3.org/2000/svg" width="458" height="458" viewBox="0 0 458 458">
    <g fill="none" fill-rule="nonzero">
        <circle cx="229" cy="229" r="229" fill="#EA8953"/>
        <path fill="#000" d="M353.805 97.799h-249.61a6.393 6.393 0 0 0-6.393 6.392v249.657c0 2.1 1.05 3.96 2.624 5.105l96.801 96.801C207.617 457.2 218.213 458 229 458c126.474 0 229-102.528 229-229 0-10.808-.804-21.426-2.252-31.835l-97.029-97.029a6.25 6.25 0 0 0-4.914-2.337z" opacity=".1"/>
        <path fill="#3A556A" d="M353.825 97.806H104.183a6.377 6.377 0 0 0-6.377 6.376v37.3H360.2v-37.3a6.377 6.377 0 0 0-6.376-6.376z"/>
        <path fill="#EBF0F3" d="M107.869 112.444h164.389v14.408H107.869z"/>
        <circle cx="292.834" cy="119.653" r="7.204" fill="#FCD462"/>
        <circle cx="318.549" cy="119.653" r="7.204" fill="#44C4A1"/>
        <circle cx="344.216" cy="119.653" r="7.204" fill="#E56353"/>
        <path fill="#FFF" d="M360.194 141.498v212.35c0 3.483-2.862 6.345-6.345 6.345H104.19c-3.53 0-6.391-2.862-6.391-6.345v-212.35h262.395z"/>
        <g fill="#64798A">
            <path d="M170.164 215.365v-12.086h10.575v12.086h7.934v10.105h-7.934v16.619h-10.575v-16.62h-28.327v-9.82l24.27-39.565h12.178l-23.887 39.281h15.766zM204.632 233.544c-4.473-6.2-6.704-14.496-6.704-24.883 0-10.385 2.231-18.68 6.704-24.881 4.468-6.199 11.204-9.3 20.205-9.3 9.002 0 15.738 3.101 20.207 9.3 4.473 6.2 6.705 14.496 6.705 24.88 0 10.388-2.232 18.683-6.705 24.884-4.468 6.201-11.205 9.3-20.207 9.3-9 0-15.737-3.099-20.205-9.3zm7.975-42.73c-2.608 4.534-3.918 10.483-3.918 17.847 0 7.366 1.31 13.315 3.918 17.849 2.615 4.53 6.692 6.797 12.23 6.797 5.54 0 9.584-2.25 12.137-6.75 2.548-4.502 3.82-10.468 3.82-17.896 0-7.426-1.27-13.392-3.82-17.893-2.553-4.5-6.596-6.751-12.137-6.751-5.538-.001-9.615 2.266-12.23 6.797zM289.141 215.365v-12.086h10.576v12.086h7.934v10.105h-7.934v16.619H289.14v-16.62h-28.327v-9.82l24.27-39.565h12.178l-23.887 39.281h15.766z"/>
        </g>
        <g fill="#E56353">
            <path d="M171.603 271.567c1.454 1.215 2.18 3.089 2.18 5.618 0 2.53-.74 4.385-2.226 5.558-1.482 1.176-3.76 1.764-6.83 1.764h-3.704v6.126h-3.527v-20.889h7.175c3.168 0 5.478.608 6.932 1.823zm-2.496 8.62c.708-.745 1.061-1.842 1.061-3.287 0-1.444-.447-2.464-1.346-3.063-.895-.596-2.302-.896-4.212-.896h-3.587v8.368h4.096c1.95-.002 3.28-.374 3.988-1.122zM190.039 290.633h-3.047v-2.122c-1.315 1.575-3.08 2.362-5.289 2.362-1.654 0-3.023-.468-4.109-1.405-1.09-.936-1.63-2.188-1.63-3.75 0-1.566.577-2.735 1.733-3.514 1.154-.775 2.72-1.164 4.692-1.164h4.333v-.598c0-2.112-1.174-3.166-3.527-3.166-1.472 0-3.005.538-4.602 1.613l-1.491-2.092c1.928-1.533 4.123-2.3 6.574-2.3 1.872 0 3.401.472 4.585 1.42 1.188.945 1.78 2.434 1.78 4.467v10.25h-.002zm-3.344-5.917v-1.344h-3.765c-2.412 0-3.62.757-3.62 2.27 0 .776.304 1.37.9 1.778.596.408 1.43.613 2.493.613 1.066 0 1.999-.298 2.795-.897.796-.599 1.197-1.404 1.197-2.42zM209.403 274.734v13.868c0 2.809-.76 4.915-2.283 6.32-1.525 1.405-3.485 2.107-5.876 2.107-2.39 0-4.55-.746-6.485-2.242l1.583-2.539c1.556 1.174 3.127 1.763 4.71 1.763 1.584 0 2.838-.41 3.765-1.225.928-.818 1.388-2.122 1.388-3.916v-2.03a5.703 5.703 0 0 1-2.139 2.24c-.923.557-1.965.836-3.12.836-2.112 0-3.845-.736-5.2-2.21-1.356-1.474-2.031-3.308-2.031-5.5 0-2.19.675-4.023 2.031-5.498 1.355-1.474 3.084-2.21 5.186-2.21s3.81.866 5.125 2.6v-2.362h3.346v-.002zM197 282.072c0 1.305.405 2.43 1.211 3.375.807.949 1.892 1.422 3.257 1.422 1.364 0 2.473-.46 3.316-1.376.848-.916 1.272-2.055 1.272-3.42 0-1.364-.428-2.52-1.286-3.468-.857-.946-1.962-1.42-3.317-1.42-1.356 0-2.436.49-3.243 1.465-.805.976-1.21 2.118-1.21 3.422zM229.04 284.148h-12.462c.079 1.156.606 2.088 1.584 2.796.973.706 2.092 1.06 3.345 1.06 1.995 0 3.508-.627 4.542-1.882l1.916 2.092c-1.715 1.773-3.947 2.66-6.695 2.66-2.231 0-4.128-.743-5.694-2.227-1.565-1.483-2.348-3.475-2.348-5.978 0-2.5.796-4.486 2.395-5.96 1.593-1.475 3.47-2.212 5.632-2.212 2.162 0 3.998.652 5.511 1.957 1.515 1.305 2.273 3.104 2.273 5.393v2.301h.002zm-12.463-2.63h9.112c0-1.335-.42-2.36-1.253-3.078-.839-.718-1.868-1.076-3.094-1.076a5.295 5.295 0 0 0-3.304 1.121c-.972.747-1.461 1.759-1.461 3.032zM257.04 269.744h3.527v20.89h-3.825l-11.834-15.242v15.241h-3.526v-20.889h3.526l12.133 15.598zM279.184 288.497c-1.593 1.584-3.587 2.376-5.977 2.376s-4.385-.792-5.978-2.376c-1.594-1.584-2.39-3.522-2.39-5.812 0-2.292.796-4.23 2.39-5.814 1.593-1.582 3.587-2.374 5.978-2.374 2.39 0 4.384.792 5.977 2.374 1.594 1.583 2.39 3.522 2.39 5.814 0 2.29-.796 4.228-2.39 5.812zm-9.578-2.06c.946.965 2.148 1.448 3.602 1.448 1.454 0 2.655-.482 3.602-1.449.946-.967 1.42-2.218 1.42-3.751 0-1.535-.474-2.784-1.42-3.75-.946-.966-2.148-1.451-3.602-1.451-1.454 0-2.656.484-3.602 1.451-.946.966-1.42 2.215-1.42 3.75 0 1.533.474 2.784 1.42 3.751zM289.258 277.425v8.068c0 .76.196 1.36.596 1.81.401.447.956.67 1.673.67.718 0 1.407-.347 2.064-1.046l1.374 2.362c-1.178 1.056-2.478 1.584-3.899 1.584-1.426 0-2.642-.494-3.648-1.479-1.007-.988-1.51-2.319-1.51-3.99v-7.979h-2v-2.69h2v-4.99h3.349v4.99h4.184v2.69h-4.183zM187.528 308.892v5.737h9.268v3.256h-9.268v8.608h-3.527v-20.889h13.927l-.03 3.287h-10.37zM214.425 324.357c-1.593 1.584-3.588 2.376-5.978 2.376-2.39 0-4.384-.792-5.978-2.376-1.593-1.584-2.39-3.522-2.39-5.812 0-2.292.797-4.23 2.39-5.814 1.594-1.582 3.588-2.374 5.978-2.374 2.39 0 4.385.792 5.978 2.374 1.594 1.583 2.39 3.522 2.39 5.814 0 2.29-.796 4.228-2.39 5.812zm-9.58-2.061c.946.966 2.148 1.45 3.602 1.45 1.454 0 2.655-.483 3.602-1.45.946-.967 1.42-2.218 1.42-3.751 0-1.535-.474-2.784-1.42-3.75-.946-.966-2.148-1.451-3.602-1.451-1.454 0-2.656.484-3.602 1.451-.946.966-1.421 2.215-1.421 3.75 0 1.533.475 2.784 1.421 3.751zM231.729 319.202v-8.608h3.344v15.9h-3.344v-2.9a5.972 5.972 0 0 1-2.227 2.3 5.935 5.935 0 0 1-3.065.839c-1.794 0-3.243-.548-4.348-1.645-1.104-1.095-1.657-2.679-1.657-4.752v-9.742h3.345v8.726c0 2.928 1.216 4.394 3.647 4.394a4.383 4.383 0 0 0 3.02-1.15c.856-.767 1.285-1.888 1.285-3.362zM243.264 317.885v8.608h-3.345v-15.899h3.345v2.901a5.945 5.945 0 0 1 2.226-2.302 5.904 5.904 0 0 1 3.06-.836c1.795 0 3.244.547 4.352 1.642 1.104 1.098 1.659 2.68 1.659 4.752v9.742h-3.35v-8.726c0-2.928-1.216-4.394-3.643-4.394a4.38 4.38 0 0 0-3.019 1.151c-.856.767-1.285 1.89-1.285 3.361zM260.447 324.462c-1.496-1.515-2.246-3.507-2.246-5.978 0-2.469.768-4.442 2.302-5.917 1.537-1.474 3.363-2.211 5.484-2.211 2.124 0 3.83.894 5.125 2.688v-8.726h3.35v22.175h-3.35v-2.39c-1.234 1.752-3.038 2.63-5.409 2.63-2.014 0-3.765-.756-5.256-2.271zm1.103-5.842c0 1.524.49 2.764 1.464 3.72.978.956 2.124 1.435 3.438 1.435 1.315 0 2.427-.484 3.345-1.452.918-.963 1.374-2.206 1.374-3.72 0-1.513-.457-2.779-1.374-3.795-.918-1.016-2.041-1.523-3.378-1.523-1.332 0-2.479.508-3.434 1.523-.954 1.016-1.435 2.285-1.435 3.812z"/>
        </g>
    </g>
</svg>
