<svg xmlns="http://www.w3.org/2000/svg" width="61" height="60" viewBox="0 0 61 60">
    <g fill="none" fill-rule="evenodd">
        <path fill="#DC4E41" d="M0 30C0 13.431 13.45 0 30.043 0s30.044 13.431 30.044 30c0 16.569-13.451 30-30.044 30C13.451 60 0 46.569 0 30z"/>
        <path fill="#FFF" d="M24.545 29.143V32.4h5.414c-.218 1.398-1.636 4.099-5.414 4.099-3.259 0-5.918-2.688-5.918-5.999 0-3.311 2.66-5.999 5.918-5.999 1.855 0 3.096.788 3.805 1.466l2.59-2.483C29.278 21.936 27.124 21 24.546 21 19.268 21 15 25.248 15 30.5s4.268 9.5 9.545 9.5c5.51 0 9.164-3.854 9.164-9.283 0-.624-.068-1.1-.15-1.574h-9.014zM45 29.143h-2.727v-2.714h-2.728v2.714h-2.727v2.714h2.727v2.714h2.728v-2.714H45"/>
    </g>
</svg>
