<svg xmlns="http://www.w3.org/2000/svg" width="274" height="99" viewBox="0 0 274 99">
    <path fill="#E1151C" fill-rule="nonzero" d="M99.433 41.202v17.096a4.172 4.172 0 0 1-4.167 4.167h-5.253a4.172 4.172 0 0 1-4.167-4.167V41.202a4.172 4.172 0 0 1 4.167-4.167h5.253a4.173 4.173 0 0 1 4.167 4.167zM273.5 22.125v55.25c0 11.786-9.589 21.375-21.375 21.375H21.375C9.589 98.75 0 89.161 0 77.375v-55.25C0 10.339 9.589.75 21.375.75h230.75c11.786 0 21.375 9.589 21.375 21.375zM68.161 69.965a7.5 7.5 0 0 0-7.5-7.5H42.433V29.536a7.5 7.5 0 0 0-15 0v40.429a7.5 7.5 0 0 0 7.5 7.5h25.728a7.5 7.5 0 0 0 7.5-7.5zm46.272-28.763c0-10.568-8.598-19.167-19.167-19.167h-5.253c-10.568 0-19.167 8.598-19.167 19.167v17.096c0 10.568 8.598 19.167 19.167 19.167h5.253c10.569 0 19.167-8.598 19.167-19.167V41.202zm51.014 17.096a7.5 7.5 0 0 0-7.5-7.5h-6.822a7.5 7.5 0 0 0-6.237 11.667h-3.86a4.172 4.172 0 0 1-4.167-4.167V41.202a4.172 4.172 0 0 1 4.167-4.167h5.253a4.1 4.1 0 0 1 2.754 1.04 7.5 7.5 0 0 0 9.927-11.245 19.145 19.145 0 0 0-12.681-4.794h-5.253c-10.568 0-19.167 8.598-19.167 19.167v17.096c0 10.568 8.598 19.167 19.167 19.167h5.253c10.568-.001 19.166-8.599 19.166-19.168zm22.233-28.762a7.5 7.5 0 0 0-15 0v40.429a7.5 7.5 0 0 0 15 0V29.536zm55.75 0a7.5 7.5 0 0 0-15 0v18.6l-18.084-23.209a7.5 7.5 0 0 0-13.416 4.61v40.429a7.5 7.5 0 0 0 15 0v-18.6l18.084 23.209a7.499 7.499 0 0 0 13.416-4.609v-40.43z"/>
</svg>
