<svg xmlns="http://www.w3.org/2000/svg" width="434" height="512" viewBox="0 0 434 512">
    <g fill="none" fill-rule="nonzero">
        <path fill="#687F82" d="M347.694 42.702C319.977 15.144 283.305 0 244.343 0l-.864.002C163.081.464 97.674 66.94 97.674 148.188v36.322a7.885 7.885 0 0 0 7.885 7.885h42.053a7.885 7.885 0 0 0 7.885-7.885v-36.615c0-49.193 39.459-89.597 87.96-90.067 23.882-.187 46.361 8.911 63.356 25.741 16.999 16.835 26.36 39.241 26.36 63.093v75.193c0 15.664 12.5 28.851 27.866 29.396.355.013.709.019 1.063.019 7.531 0 14.619-2.856 20.059-8.107 5.697-5.498 8.835-12.887 8.835-20.805v-75.696c0-39.276-15.378-76.195-43.302-103.96z"/>
        <g fill="#FFF">
            <path d="M369.969 188.188a7.885 7.885 0 0 1-7.885-7.885v-33.642c0-18.004-3.935-35.24-11.695-51.227a7.884 7.884 0 0 1 3.65-10.536 7.883 7.883 0 0 1 10.536 3.65c8.81 18.151 13.277 37.703 13.277 58.113v33.642a7.881 7.881 0 0 1-7.883 7.885zM332.868 65.498a7.858 7.858 0 0 1-5.559-2.294c-8.289-8.241-17.646-15.168-27.808-20.586-16.817-8.967-35.889-13.706-55.157-13.706a7.885 7.885 0 0 1-7.885-7.885 7.885 7.885 0 0 1 7.885-7.885c21.846 0 43.485 5.381 62.578 15.561 11.524 6.144 22.124 13.99 31.507 23.319a7.887 7.887 0 0 1 .032 11.152 7.872 7.872 0 0 1-5.593 2.324z"/>
        </g>
        <path fill="#4ACFD9" d="M393.624 214.472H95.045c-21.74 0-39.425 17.686-39.425 39.425v250.218A7.885 7.885 0 0 0 63.505 512h361.659a7.885 7.885 0 0 0 7.885-7.885V253.897c0-21.739-17.685-39.425-39.425-39.425z"/>
        <path fill="#0295AA" d="M95.045 214.472c-21.74 0-39.425 17.686-39.425 39.425v250.218A7.885 7.885 0 0 0 63.505 512h180.83V214.472H95.045z"/>
        <path fill="#FFD1A9" d="M258.578 350.283c22.964-6.271 39.9-27.304 39.9-52.229 0-29.855-24.289-54.144-54.144-54.144-29.855 0-54.144 24.289-54.144 54.144 0 24.925 16.936 45.958 39.9 52.229-39.322 6.783-69.338 41.112-69.338 82.342v42.053a7.885 7.885 0 0 0 7.885 7.885h151.392a7.885 7.885 0 0 0 7.885-7.885v-42.053c.002-41.23-30.014-75.559-69.336-82.342z"/>
        <path fill="#FF8C29" d="M190.191 298.053c0 24.925 16.936 45.958 39.9 52.229-39.322 6.783-69.338 41.112-69.338 82.342v42.053a7.885 7.885 0 0 0 7.885 7.885h75.696V243.91c-29.854 0-54.143 24.289-54.143 54.143z"/>
        <g fill="#F0353D">
            <path d="M41.546 191.075H8.836a7.885 7.885 0 0 1-7.885-7.885 7.885 7.885 0 0 1 7.885-7.885h32.71a7.885 7.885 0 0 1 7.885 7.885 7.885 7.885 0 0 1-7.885 7.885zM50.678 164.312a7.857 7.857 0 0 1-5.575-2.31l-20.815-20.815a7.887 7.887 0 0 1 0-11.152 7.883 7.883 0 0 1 11.15 0l20.815 20.815a7.887 7.887 0 0 1-5.575 13.462zM29.651 238.653a7.857 7.857 0 0 1-5.575-2.31 7.884 7.884 0 0 1 0-11.15l20.815-20.815a7.884 7.884 0 1 1 11.15 11.15l-20.815 20.815a7.857 7.857 0 0 1-5.575 2.31z"/>
        </g>
    </g>
</svg>
